<?xml version="1.0" encoding="UTF-8" standalone="no"?>
<!-- Created with Inkscape (http://www.inkscape.org/) -->

<svg
   width="172.69652"
   height="172.69652"
   id="svg4874"
   version="1.1"
   inkscape:version="1.2.1 (9c6d41e410, 2022-07-14)"
   sodipodi:docname="ECB_Hazard_Symbol_T+.svg"
   xmlns:inkscape="http://www.inkscape.org/namespaces/inkscape"
   xmlns:sodipodi="http://sodipodi.sourceforge.net/DTD/sodipodi-0.dtd"
   xmlns="http://www.w3.org/2000/svg"
   xmlns:svg="http://www.w3.org/2000/svg"
   xmlns:rdf="http://www.w3.org/1999/02/22-rdf-syntax-ns#"
   xmlns:cc="http://creativecommons.org/ns#"
   xmlns:dc="http://purl.org/dc/elements/1.1/">
  <defs
     id="defs4876" />
  <sodipodi:namedview
     id="base"
     pagecolor="#ffffff"
     bordercolor="#666666"
     borderopacity="1.0"
     inkscape:pageopacity="0.0"
     inkscape:pageshadow="2"
     inkscape:zoom="4"
     inkscape:cx="3.5"
     inkscape:cy="119.5"
     inkscape:document-units="px"
     inkscape:current-layer="layer1"
     showgrid="false"
     inkscape:showpageshadow="false"
     fit-margin-top="0"
     fit-margin-left="0"
     fit-margin-right="0"
     fit-margin-bottom="0"
     inkscape:window-width="1920"
     inkscape:window-height="1017"
     inkscape:window-x="-8"
     inkscape:window-y="-8"
     inkscape:window-maximized="1"
     showguides="true"
     inkscape:guide-bbox="true"
     inkscape:pagecheckerboard="0"
     inkscape:deskcolor="#d1d1d1" />
  <metadata
     id="metadata4879">
    <rdf:RDF>
      <cc:Work
         rdf:about="">
        <dc:format>image/svg+xml</dc:format>
        <dc:type
           rdf:resource="http://purl.org/dc/dcmitype/StillImage" />
        <dc:title />
      </cc:Work>
    </rdf:RDF>
  </metadata>
  <g
     inkscape:label="Ebene 1"
     inkscape:groupmode="layer"
     id="layer1"
     transform="translate(-322.21171,-534.58662)">
    <path
       id="rect3748-2"
       d="M 325.99042,538.3526 H 491.15244 V 703.51461 H 325.99042 Z"
       style="fill:#ff6600;fill-opacity:1;stroke:none"
       inkscape:connector-curvature="0" />
    <path
       style="color:#000000;font-style:normal;font-variant:normal;font-weight:normal;font-stretch:normal;font-size:medium;line-height:normal;font-family:'3 of 9 Barcode';-inkscape-font-specification:'3 of 9 Barcode';text-indent:0;text-align:start;text-decoration:none;text-decoration-line:none;letter-spacing:normal;word-spacing:normal;text-transform:none;writing-mode:lr-tb;direction:ltr;baseline-shift:baseline;text-anchor:start;display:inline;overflow:visible;visibility:visible;fill:#000000;fill-opacity:1;stroke:none;stroke-width:7.53441;marker:none;enable-background:accumulate"
       d="m 322.21875,534.59375 v 3.75 V 703.5 707.28125 H 326 h 165.15625 3.75 V 703.5 538.34375 v -3.75 h -3.75 H 326 Z M 329.75,542.125 H 487.375 V 699.75 H 329.75 Z"
       id="rect3748"
       inkscape:connector-curvature="0" />
    <path
       inkscape:connector-curvature="0"
       sodipodi:nodetypes="csccsssccsszccczcsccccccss"
       id="path3434"
       d="m 406.47502,553.85679 c 21.88379,0 47.44624,11.19695 47.44624,39.85486 0,16.65547 -6.53704,22.56332 -6.53704,22.56332 v 11.80884 c 10.33274,-1.68697 11.30168,-9.9991 17.29153,-9.91098 3.296,0.0485 3.93005,4.45441 6.86484,10.56315 4.00487,8.33614 3.71258,16.54138 -2.43653,14.95238 -12.32692,-3.18543 -25.51553,6.74791 -29.94385,7.16965 v 7.5914 c 0,0 10.22804,6.3849 11.77857,6.80036 1.55051,0.41546 11.51019,-2.14105 16.05656,-0.26332 0,0 7.09495,4.40187 1.7969,13.20138 -5.53413,9.19161 -12.76225,19.06207 -21.61889,3.03578 l -18.135,-8.01314 c -14.33931,16.02629 -30.63813,11.71366 -42.17445,0.63261 -21.98442,5.97578 -21.26861,12.01889 -27.20252,13.07408 -5.61138,0.99784 -5.05636,-3.46357 -7.43046,-8.52074 -2.37409,-5.05718 -6.8683,-6.34746 -5.85448,-11.09037 2.95221,-13.81127 14.76105,4.21744 30.99821,-11.59797 l -0.42174,-6.53705 -20.45461,-10.12186 c -25.30466,9.27838 -9.46274,-23.57813 -2.10872,-22.35246 3.7957,0.63262 9.27838,9.06751 15.81542,9.06751 v -10.75448 c 0,0 -8.01315,-9.75011 -8.01315,-24.88293 0,-6.35402 7.63772,-36.27002 44.28317,-36.27002 z"
       style="fill:#000000;fill-rule:evenodd;stroke:none;stroke-width:0.838587" />
    <path
       id="path3440"
       style="fill:#ffffff;fill-rule:evenodd;stroke:none;stroke-width:0.838587"
       d="M 408.03202 560.61787 C 369.30411 560.4103 368.67069 590.98064 368.67069 592.44795 C 368.67069 603.00935 373.64376 610.92194 374.92265 613.05342 C 377.86708 603.07679 370.40478 594.55725 374.21366 587.47529 C 375.39095 591.39262 378.12118 595.18355 378.19218 604.66865 C 378.26322 614.15374 374.49687 616.9377 374.49687 624.98896 C 374.49687 637.86684 388.51472 633.72191 390.55351 641.33076 C 392.98875 650.41925 402.15176 649.99873 408.03202 649.99873 C 423.45183 649.99873 423.80047 645.12966 425.08476 640.33662 C 426.08097 636.61871 442.56327 638.54799 442.56327 625.6999 C 442.56327 620.88107 438.2996 616.57777 438.2996 606.94209 C 438.2996 597.30956 439.72037 592.4489 441.70976 585.20185 C 446.32656 599.69712 438.436 612.2551 442.27812 614.47334 C 443.99483 611.23073 448.67265 607.39446 448.67265 592.87373 C 448.67265 578.2109 434.82877 560.75997 408.03202 560.61787 z M 392.79179 602.821 C 400.46997 602.821 403.02226 607.63186 403.02226 614.19014 C 403.02226 622.29755 397.50643 627.2624 390.80155 627.2624 C 383.17826 627.2624 382.27616 620.24004 382.27616 614.7585 C 382.27616 610.05227 383.82778 602.821 392.79179 602.821 z M 423.80546 602.821 C 432.76947 602.821 434.32108 610.05227 434.32108 614.7585 C 434.32108 620.24004 433.419 627.2624 425.79569 627.2624 C 419.09083 627.2624 413.57499 622.29755 413.57499 614.19014 C 413.57499 607.63186 416.12728 602.821 423.80546 602.821 z M 464.60624 622.83857 C 463.1863 622.84073 460.81889 624.78017 457.08476 630.19209 C 454.0392 634.60603 440.21548 632.29384 439.79374 644.11006 L 461.51249 636.09639 C 468.67475 640.91431 472.10927 636.74098 465.72929 631.87959 C 466.70409 628.2148 466.97282 622.83497 464.60624 622.83857 z M 355.34062 622.87959 C 354.92285 622.86854 354.45629 623.17248 353.75663 623.86592 C 352.66507 624.94779 349.90509 628.57798 349.23905 631.15889 C 348.02629 635.85827 353.82736 631.54011 359.02812 633.77803 C 365.68375 636.64197 375.68827 642.00068 375.68827 642.00068 C 375.68827 642.00068 375.08008 635.67978 372.94608 634.83076 C 358.03907 628.89995 357.15091 622.92746 355.34062 622.87959 z M 408.79179 622.99873 C 413.37082 622.99873 420.32359 642.0417 414.56913 642.0417 C 408.75302 642.0417 410.0685 635.50459 409.07499 635.50459 C 408.08149 635.50459 408.85466 642.0417 403.48515 642.0417 C 398.05396 642.0417 404.21274 622.99873 408.79179 622.99873 z M 381.75273 639.47334 C 381.75273 642.10678 383.64726 645.64965 383.64726 660.78975 C 383.64726 660.78975 397.89607 677.13154 408.35819 677.13154 C 419.8515 677.13154 430.80822 662.33971 432.12187 661.02607 C 432.12187 661.02607 433.31132 642.4747 433.31132 640.80928 C 430.67883 642.32913 428.09452 642.20145 428.09452 653.36787 C 428.09452 654.08279 424.86379 666.15693 408.43632 666.15693 C 395.00344 666.15693 387.98905 656.37442 387.98905 655.18428 C 387.98905 641.70481 388.07867 643.12564 381.75273 639.47334 z M 389.51054 647.86201 C 389.14839 647.86201 389.08476 648.02173 389.08476 648.38935 L 389.08476 651.09053 C 389.08476 651.36433 389.20382 651.51526 389.41874 651.63935 C 389.68141 651.791 390.23612 652.01826 390.4871 652.01826 C 390.7288 652.01826 390.80741 651.8667 390.80741 651.62373 L 390.80741 648.76826 C 390.80741 648.58166 390.79907 648.42593 390.59648 648.22334 C 390.59648 648.22334 390.08228 647.86201 389.51054 647.86201 z M 426.50663 647.86201 C 425.93489 647.86201 425.42069 648.22334 425.42069 648.22334 C 425.2181 648.42593 425.20976 648.58166 425.20976 648.76826 L 425.20976 651.62373 C 425.20976 651.8667 425.28847 652.01826 425.53007 652.01826 C 425.78105 652.01826 426.33576 651.791 426.59843 651.63935 C 426.81335 651.51526 426.93241 651.36433 426.93241 651.09053 L 426.93241 648.38935 C 426.93241 648.02173 426.86878 647.86201 426.50663 647.86201 z M 391.85233 649.07685 C 391.52685 649.16401 391.52226 649.55792 391.52226 649.74482 L 391.52226 652.64521 C 391.52226 652.98769 391.63957 653.36735 391.97538 653.56123 C 392.38582 653.7982 393.25111 654.13154 393.88358 654.13154 C 394.21292 654.04329 394.21366 653.70125 394.21366 653.51435 L 394.21366 650.42842 C 394.21366 650.24152 394.22449 649.96509 393.88358 649.76826 C 393.88358 649.76826 392.61989 649.07685 391.85233 649.07685 z M 424.16483 649.07685 C 423.39729 649.07685 422.13358 649.76826 422.13358 649.76826 C 421.79269 649.96509 421.80351 650.24152 421.80351 650.42842 L 421.80351 653.51435 C 421.80351 653.70125 421.80426 654.04329 422.13358 654.13154 C 422.76607 654.13154 423.63135 653.7982 424.04179 653.56123 C 424.3776 653.36735 424.49491 652.98769 424.49491 652.64521 L 424.49491 649.74482 C 424.49491 649.55792 424.49033 649.16401 424.16483 649.07685 z M 395.97343 650.38545 C 395.79716 650.3886 395.62431 650.41024 395.46171 650.45381 C 395.24281 650.52678 395.05351 650.70354 395.05351 650.93428 L 395.05351 654.27803 C 395.05351 654.50877 395.04713 654.98203 395.46171 655.22139 C 395.96844 655.51394 397.18892 655.98133 397.96952 655.77217 C 398.37612 655.66322 398.37773 655.23922 398.37773 655.0085 L 398.37773 651.66475 C 398.37773 651.43402 398.3904 651.09328 397.96952 650.85029 C 397.96952 650.85029 396.92526 650.36841 395.97343 650.38545 z M 419.93827 650.38545 C 419.01651 650.4033 418.04765 650.85029 418.04765 650.85029 C 417.62677 651.09328 417.63944 651.43402 417.63944 651.66475 L 417.63944 655.0085 C 417.63944 655.23922 417.64105 655.66322 418.04765 655.77217 C 418.82825 655.98133 420.04873 655.51394 420.55546 655.22139 C 420.97004 654.98203 420.96366 654.50877 420.96366 654.27803 L 420.96366 650.93428 C 420.96366 650.70354 420.77436 650.52678 420.55546 650.45381 C 420.36034 650.40153 420.15099 650.38133 419.93827 650.38545 z M 400.1414 651.18818 C 399.96513 651.19134 399.79228 651.21102 399.62968 651.25459 C 399.41078 651.32755 399.22148 651.50627 399.22148 651.73701 L 399.22148 655.69795 C 399.22148 655.92869 399.2151 656.39999 399.62968 656.63935 C 400.13641 656.93191 401.35885 657.3993 402.13944 657.19014 C 402.54604 657.08119 402.54569 656.65916 402.54569 656.42842 L 402.54569 652.46748 C 402.54569 652.23674 402.56032 651.89602 402.13944 651.65303 C 402.13944 651.65303 401.09323 651.17114 400.1414 651.18818 z M 415.7703 651.18818 C 414.84854 651.20603 413.87773 651.65303 413.87773 651.65303 C 413.45685 651.89602 413.47148 652.23674 413.47148 652.46748 L 413.47148 656.42842 C 413.47148 656.65916 413.47113 657.08119 413.87773 657.19014 C 414.65832 657.3993 415.88076 656.93191 416.38749 656.63935 C 416.80207 656.39999 416.79569 655.92869 416.79569 655.69795 L 416.79569 651.73701 C 416.79569 651.50627 416.60639 651.32755 416.38749 651.25459 C 416.19237 651.20231 415.98302 651.18406 415.7703 651.18818 z M 405.51444 651.52607 C 404.95287 651.52607 404.39134 651.59109 403.90507 651.72139 C 403.68633 651.80473 403.48319 651.90918 403.48319 652.14326 L 403.48319 657.0124 C 403.48319 657.24648 403.93271 657.65303 404.16679 657.65303 C 404.16679 657.65303 405.93446 657.91362 406.90702 657.65303 C 407.14109 657.65303 407.54765 657.22531 407.54765 655.55146 L 407.54765 652.14326 C 407.54765 651.90918 407.343 651.80359 407.12382 651.72139 C 406.63754 651.59109 406.07602 651.52607 405.51444 651.52607 z M 410.50273 651.52607 C 409.94115 651.52607 409.37963 651.59109 408.89335 651.72139 C 408.67417 651.80359 408.46952 651.90918 408.46952 652.14326 L 408.46952 655.55146 C 408.46952 657.22531 408.87608 657.65303 409.11015 657.65303 C 410.08271 657.91362 411.85038 657.65303 411.85038 657.65303 C 412.08446 657.65303 412.53398 657.24648 412.53398 657.0124 L 412.53398 652.14326 C 412.53398 651.90918 412.33084 651.80473 412.1121 651.72139 C 411.62583 651.59109 411.0643 651.52607 410.50273 651.52607 z M 391.99101 655.06318 C 391.59836 655.06318 391.52226 655.47674 391.52226 655.66475 L 391.52226 658.58076 C 391.52226 658.92185 391.60322 659.16713 391.94413 659.36396 C 391.94413 659.36396 393.04069 659.91209 393.88358 659.68623 C 394.0609 659.62713 394.21366 659.4825 394.21366 659.2956 L 394.21366 656.22529 C 394.21366 655.96085 394.21939 655.70236 393.88358 655.5085 C 393.47316 655.27153 392.87014 655.06318 391.99101 655.06318 z M 424.02616 655.06318 C 423.14703 655.06318 422.54402 655.27153 422.13358 655.5085 C 421.79779 655.70236 421.80351 655.96085 421.80351 656.22529 L 421.80351 659.2956 C 421.80351 659.4825 421.95628 659.62713 422.13358 659.68623 C 422.97649 659.91209 424.07304 659.36396 424.07304 659.36396 C 424.41395 659.16713 424.49491 658.92185 424.49491 658.58076 L 424.49491 655.66475 C 424.49491 655.47674 424.41881 655.06318 424.02616 655.06318 z M 395.93827 656.53975 C 395.7685 656.53696 395.60807 656.55326 395.46171 656.59248 C 395.05511 656.70143 395.05351 657.12347 395.05351 657.3542 L 395.05351 660.76045 C 395.05351 660.99119 395.04083 661.33191 395.46171 661.5749 C 395.46171 661.5749 396.93083 662.25023 397.97148 661.97139 C 398.19038 661.89843 398.37773 661.72165 398.37773 661.49092 L 398.37773 658.08467 C 398.37773 657.85393 398.38606 657.38262 397.97148 657.14326 C 397.55976 656.90556 396.67396 656.55181 395.93827 656.53975 z M 420.0789 656.53975 C 419.34321 656.55181 418.45937 656.90556 418.04765 657.14326 C 417.63307 657.38262 417.63944 657.85393 417.63944 658.08467 L 417.63944 661.49092 C 417.63944 661.72165 417.82875 661.89843 418.04765 661.97139 C 419.0883 662.25023 420.55546 661.5749 420.55546 661.5749 C 420.97634 661.33191 420.96366 660.99119 420.96366 660.76045 L 420.96366 657.3542 C 420.96366 657.12347 420.96206 656.70143 420.55546 656.59248 C 420.4091 656.55326 420.24867 656.53696 420.0789 656.53975 z M 400.10819 657.71162 C 399.93842 657.70883 399.77604 657.72514 399.62968 657.76435 C 399.22309 657.8733 399.22148 658.29533 399.22148 658.52607 L 399.22148 662.30342 C 399.22148 662.53416 399.20881 662.87293 399.62968 663.11592 C 399.62968 663.11592 401.09881 663.79319 402.13944 663.51435 C 402.35834 663.44139 402.54569 663.26267 402.54569 663.03193 L 402.54569 659.25654 C 402.54569 659.0258 402.55402 658.5545 402.13944 658.31514 C 401.72773 658.07744 400.84388 657.7237 400.10819 657.71162 z M 415.91093 657.71162 C 415.17524 657.7237 414.28944 658.07744 413.87773 658.31514 C 413.46315 658.5545 413.47148 659.0258 413.47148 659.25654 L 413.47148 663.03193 C 413.47148 663.26267 413.65883 663.44139 413.87773 663.51435 C 414.91836 663.79319 416.38749 663.11592 416.38749 663.11592 C 416.80836 662.87293 416.79569 662.53416 416.79569 662.30342 L 416.79569 658.52607 C 416.79569 658.29533 416.79408 657.8733 416.38749 657.76435 C 416.24113 657.72514 416.0807 657.70883 415.91093 657.71162 z M 405.51444 658.45185 C 404.91266 658.45194 404.31026 658.50539 403.90507 658.61396 C 403.68165 658.68378 403.48319 658.80371 403.48319 659.03779 L 403.72929 663.59834 C 403.72929 663.83242 404.10263 664.36006 404.33671 664.36006 L 406.72343 664.36006 C 406.9575 664.36006 407.2703 663.80313 407.2703 663.56904 L 407.54765 659.03779 C 407.54765 658.80371 407.33562 658.71366 407.12382 658.61396 C 406.7173 658.50503 406.11623 658.45177 405.51444 658.45185 z M 410.50273 658.45185 C 409.90094 658.45177 409.29987 658.50503 408.89335 658.61396 C 408.68155 658.71366 408.46952 658.80371 408.46952 659.03779 L 408.74687 663.56904 C 408.74687 663.80313 409.05967 664.36006 409.29374 664.36006 L 411.68046 664.36006 C 411.91454 664.36006 412.28788 663.83242 412.28788 663.59834 L 412.53398 659.03779 C 412.53398 658.80371 412.33552 658.68378 412.1121 658.61396 C 411.70691 658.50539 411.10451 658.45194 410.50273 658.45185 z M 378.63944 663.08857 C 374.42202 664.77555 362.812 672.37911 359.02812 669.20381 C 357.28199 667.73852 350.3546 666.00077 352.49101 670.89131 C 354.0419 674.44152 360.10335 682.74279 361.98124 680.16865 C 363.87908 677.63818 363.87903 674.68591 368.09648 673.63154 L 382.22538 667.93818 L 378.63944 663.08857 z M 436.62968 663.29951 L 434.30937 668.99287 C 460.03572 680.59083 456.32637 692.00569 461.30155 677.85029 C 465.64413 671.91889 463.48678 670.38117 459.19218 671.946 C 452.26413 674.35574 436.62968 663.29951 436.62968 663.29951 z " />
    <path
       inkscape:connector-curvature="0"
       style="font-style:normal;font-variant:normal;font-weight:normal;font-stretch:normal;font-size:36px;line-height:125%;font-family:'Choque Display SSi';-inkscape-font-specification:'Choque Display SSi';text-align:start;writing-mode:lr-tb;text-anchor:start;fill:#000000;fill-opacity:1;stroke:none;stroke-width:0.838587"
       d="m 453.49839,553.62307 h -6.30906 v -4.8055 h 18.3228 v 4.83498 h -6.27957 v 17.11406 h -5.73417 v -17.14354 m 18.94191,9.22773 h -5.70469 v -4.8792 h 5.67521 v -5.86683 h 4.92343 v 5.86683 h 5.67519 v 4.8792 h -5.70468 v 5.70469 h -4.86446 v -5.70469"
       id="text3506" />
  </g>
</svg>
